<mxfile host="app.diagrams.net" modified="2022-04-19T13:57:51.157Z" agent="5.0 (Windows NT 10.0; Win64; x64) AppleWebKit/537.36 (KHTML, like Gecko) Chrome/100.0.4896.88 Safari/537.36" etag="SiOIT6NWc9JF5f8SzkO0" version="17.4.5" type="github">
  <diagram id="54Jkuhlxj8REeLA1txMC" name="Page-1">
    <mxGraphModel dx="1410" dy="560" grid="1" gridSize="10" guides="1" tooltips="1" connect="1" arrows="1" fold="1" page="1" pageScale="1" pageWidth="850" pageHeight="1100" math="1" shadow="0">
      <root>
        <mxCell id="0" />
        <mxCell id="1" parent="0" />
        <mxCell id="n7GQPO7dgmd4x0_rS5tO-1" value="&lt;font style=&quot;font-size: 20px&quot;&gt;$$\frac{\delta FESTive}{\delta FESTering}$$&lt;/font&gt;" style="text;html=1;align=center;verticalAlign=middle;resizable=0;points=[];autosize=1;strokeColor=none;fillColor=none;" vertex="1" parent="1">
          <mxGeometry x="-110" y="230" width="400" height="20" as="geometry" />
        </mxCell>
        <mxCell id="n7GQPO7dgmd4x0_rS5tO-2" value="&lt;font color=&quot;#ff0000&quot;&gt;FEST&lt;/font&gt;" style="rounded=0;whiteSpace=wrap;html=1;fontSize=20;fillColor=none;strokeColor=#069968;" vertex="1" parent="1">
          <mxGeometry x="190" y="215" width="90" height="50" as="geometry" />
        </mxCell>
        <mxCell id="n7GQPO7dgmd4x0_rS5tO-3" value="" style="rounded=0;whiteSpace=wrap;html=1;fontSize=20;fontColor=#FF0000;strokeColor=#FF0000;fillColor=none;" vertex="1" parent="1">
          <mxGeometry x="185" y="210" width="100" height="60" as="geometry" />
        </mxCell>
        <mxCell id="n7GQPO7dgmd4x0_rS5tO-4" value="-" style="text;html=1;align=center;verticalAlign=middle;resizable=0;points=[];autosize=1;strokeColor=none;fillColor=none;fontSize=20;fontColor=#FF0000;" vertex="1" parent="1">
          <mxGeometry x="280" y="224" width="20" height="30" as="geometry" />
        </mxCell>
        <mxCell id="n7GQPO7dgmd4x0_rS5tO-5" value="ive" style="text;html=1;align=center;verticalAlign=middle;resizable=0;points=[];autosize=1;strokeColor=none;fillColor=none;fontSize=20;fontColor=#FF0000;" vertex="1" parent="1">
          <mxGeometry x="310" y="185" width="40" height="30" as="geometry" />
        </mxCell>
        <mxCell id="n7GQPO7dgmd4x0_rS5tO-6" value="estering" style="text;html=1;align=center;verticalAlign=middle;resizable=0;points=[];autosize=1;strokeColor=none;fillColor=none;fontSize=20;fontColor=#FF0000;" vertex="1" parent="1">
          <mxGeometry x="309" y="264" width="90" height="30" as="geometry" />
        </mxCell>
        <mxCell id="n7GQPO7dgmd4x0_rS5tO-7" value="" style="endArrow=none;html=1;rounded=0;fontSize=20;fontColor=#FF0000;strokeColor=#FF0000;entryX=0;entryY=0.5;entryDx=0;entryDy=0;entryPerimeter=0;" edge="1" parent="1" target="n7GQPO7dgmd4x0_rS5tO-5">
          <mxGeometry width="50" height="50" relative="1" as="geometry">
            <mxPoint x="294" y="240" as="sourcePoint" />
            <mxPoint x="303" y="200" as="targetPoint" />
            <Array as="points">
              <mxPoint x="303" y="240" />
              <mxPoint x="303" y="200" />
            </Array>
          </mxGeometry>
        </mxCell>
        <mxCell id="n7GQPO7dgmd4x0_rS5tO-9" value="" style="endArrow=none;html=1;rounded=0;fontSize=20;fontColor=#FF0000;strokeColor=#FF0000;" edge="1" parent="1">
          <mxGeometry width="50" height="50" relative="1" as="geometry">
            <mxPoint x="310" y="280" as="sourcePoint" />
            <mxPoint x="294" y="242" as="targetPoint" />
            <Array as="points">
              <mxPoint x="303" y="280" />
              <mxPoint x="303" y="242" />
            </Array>
          </mxGeometry>
        </mxCell>
        <mxCell id="n7GQPO7dgmd4x0_rS5tO-10" value="&lt;font&gt;&lt;font style=&quot;font-size: 10px&quot;&gt;RELAXARE&amp;nbsp;&lt;/font&gt;&lt;br style=&quot;font-size: 12px&quot;&gt;&lt;/font&gt;" style="text;html=1;align=center;verticalAlign=middle;resizable=0;points=[];autosize=1;strokeColor=none;fillColor=none;fontSize=12;fontColor=#FF0000;spacing=1;" vertex="1" parent="1">
          <mxGeometry x="200" y="289" width="70" height="20" as="geometry" />
        </mxCell>
        <mxCell id="n7GQPO7dgmd4x0_rS5tO-11" value="OVERTON" style="text;html=1;align=center;verticalAlign=middle;resizable=0;points=[];autosize=1;strokeColor=none;fillColor=none;fontSize=10;fontColor=#FF0000;" vertex="1" parent="1">
          <mxGeometry x="204" y="300" width="60" height="20" as="geometry" />
        </mxCell>
        <mxCell id="n7GQPO7dgmd4x0_rS5tO-16" value="" style="curved=1;endArrow=blockThin;html=1;fontSize=5;fontColor=#FF0000;strokeColor=#FF0000;verticalAlign=middle;horizontal=1;endFill=1;entryX=0.389;entryY=1.016;entryDx=0;entryDy=0;entryPerimeter=0;" edge="1" parent="1" target="n7GQPO7dgmd4x0_rS5tO-3">
          <mxGeometry width="50" height="50" relative="1" as="geometry">
            <mxPoint x="225" y="293" as="sourcePoint" />
            <mxPoint x="225" y="273" as="targetPoint" />
            <Array as="points">
              <mxPoint x="235" y="283" />
              <mxPoint x="215" y="283" />
            </Array>
          </mxGeometry>
        </mxCell>
        <mxCell id="n7GQPO7dgmd4x0_rS5tO-17" value="&lt;font style=&quot;font-size: 20px&quot;&gt;PRESIUNI&lt;br&gt;MECANICE si&lt;br&gt;CHIMICE asupra&lt;br&gt;BULBULUI&lt;br&gt;RAHIDIAN si&lt;br&gt;asupra LOCUS-ului&lt;br&gt;de MANI-FESTARE&lt;br&gt;a vointei.&lt;br&gt;&lt;/font&gt;" style="text;html=1;align=center;verticalAlign=middle;resizable=0;points=[];autosize=1;strokeColor=none;fillColor=none;fontSize=5;fontColor=#FF0000;" vertex="1" parent="1">
          <mxGeometry x="420" y="199" width="190" height="90" as="geometry" />
        </mxCell>
        <mxCell id="n7GQPO7dgmd4x0_rS5tO-19" value="" style="endArrow=none;html=1;fontSize=20;fontColor=#FF0000;strokeColor=#FF0000;curved=1;" edge="1" parent="1">
          <mxGeometry width="50" height="50" relative="1" as="geometry">
            <mxPoint x="310" y="240" as="sourcePoint" />
            <mxPoint x="370" y="200" as="targetPoint" />
            <Array as="points">
              <mxPoint x="370" y="240" />
            </Array>
          </mxGeometry>
        </mxCell>
        <mxCell id="n7GQPO7dgmd4x0_rS5tO-20" value="" style="endArrow=none;html=1;fontSize=20;fontColor=#FF0000;strokeColor=#FF0000;curved=1;entryX=0.717;entryY=-0.048;entryDx=0;entryDy=0;entryPerimeter=0;" edge="1" parent="1" target="n7GQPO7dgmd4x0_rS5tO-6">
          <mxGeometry width="50" height="50" relative="1" as="geometry">
            <mxPoint x="310" y="243" as="sourcePoint" />
            <mxPoint x="360" y="193" as="targetPoint" />
            <Array as="points">
              <mxPoint x="369" y="240" />
            </Array>
          </mxGeometry>
        </mxCell>
        <mxCell id="n7GQPO7dgmd4x0_rS5tO-21" value="&lt;font color=&quot;#069968&quot;&gt;&quot; &lt;/font&gt;&lt;font color=&quot;#330000&quot;&gt;cand NU &amp;lt;ai&amp;gt; &lt;br&gt;ce imi &amp;lt;lua&amp;gt; &lt;br&gt;&amp;nbsp;pot &amp;lt;promite&amp;gt; &lt;br&gt;&amp;nbsp; &amp;lt;*-ORICE&amp;gt; ca sa&lt;br&gt;&amp;nbsp; &amp;nbsp; &amp;nbsp;te&amp;nbsp; &amp;nbsp;&amp;lt; CONVING &amp;gt; &lt;br&gt;&amp;nbsp; &amp;nbsp; &amp;nbsp; &amp;nbsp; &amp;nbsp; &amp;nbsp; &amp;nbsp;&amp;lt;PERSUADE&amp;gt;&lt;/font&gt;&lt;font color=&quot;#069968&quot;&gt;&amp;nbsp;&quot;&lt;/font&gt;" style="text;html=1;align=center;verticalAlign=middle;resizable=0;points=[];autosize=1;strokeColor=none;fillColor=none;fontSize=20;fontColor=#FF0000;" vertex="1" parent="1">
          <mxGeometry x="-35" y="370" width="230" height="150" as="geometry" />
        </mxCell>
        <mxCell id="n7GQPO7dgmd4x0_rS5tO-22" value="" style="endArrow=none;dashed=1;html=1;dashPattern=1 3;strokeWidth=2;fontSize=20;fontColor=#330000;curved=1;strokeColor=#069968;" edge="1" parent="1">
          <mxGeometry width="50" height="50" relative="1" as="geometry">
            <mxPoint x="44" y="513" as="sourcePoint" />
            <mxPoint x="44" y="473" as="targetPoint" />
            <Array as="points">
              <mxPoint x="30" y="492" />
            </Array>
          </mxGeometry>
        </mxCell>
        <mxCell id="n7GQPO7dgmd4x0_rS5tO-24" value="&lt;font color=&quot;rgba(0, 0, 0, 0)&quot; face=&quot;monospace&quot;&gt;&lt;span style=&quot;font-size: 0px&quot;&gt;E&lt;/span&gt;&lt;/font&gt;" style="text;html=1;align=center;verticalAlign=middle;resizable=0;points=[];autosize=1;strokeColor=none;fillColor=none;fontSize=20;fontColor=#330000;" vertex="1" parent="1">
          <mxGeometry x="310" y="420" width="20" height="40" as="geometry" />
        </mxCell>
        <mxCell id="n7GQPO7dgmd4x0_rS5tO-26" value="ENGLISH&amp;nbsp;&lt;br&gt;&lt;br&gt;&lt;br&gt;RONGLISH&lt;br&gt;RONGLEZA&lt;br&gt;&lt;br&gt;&lt;br&gt;&amp;nbsp; &amp;nbsp;ROMANIAN" style="text;html=1;align=center;verticalAlign=middle;resizable=0;points=[];autosize=1;strokeColor=none;fillColor=none;fontSize=20;fontColor=#330000;" vertex="1" parent="1">
          <mxGeometry x="220" y="350" width="140" height="200" as="geometry" />
        </mxCell>
        <mxCell id="n7GQPO7dgmd4x0_rS5tO-27" value="&lt;font color=&quot;#069968&quot; style=&quot;font-size: 10px&quot;&gt;&amp;nbsp;PURITY&amp;amp;&lt;br&gt;DEPTH&lt;br&gt;&lt;/font&gt;" style="text;html=1;align=center;verticalAlign=middle;resizable=0;points=[];autosize=1;strokeColor=none;fillColor=none;fontSize=20;fontColor=#330000;" vertex="1" parent="1">
          <mxGeometry x="250" y="370" width="60" height="60" as="geometry" />
        </mxCell>
        <mxCell id="n7GQPO7dgmd4x0_rS5tO-28" value="&lt;font color=&quot;#069968&quot; style=&quot;font-size: 10px&quot;&gt;&amp;nbsp;PURITY&amp;amp;&lt;br&gt;DEPTH&lt;br&gt;&lt;/font&gt;" style="text;html=1;align=center;verticalAlign=middle;resizable=0;points=[];autosize=1;strokeColor=none;fillColor=none;fontSize=20;fontColor=#330000;" vertex="1" parent="1">
          <mxGeometry x="250" y="460" width="60" height="60" as="geometry" />
        </mxCell>
        <mxCell id="n7GQPO7dgmd4x0_rS5tO-29" value="" style="endArrow=classic;startArrow=classic;html=1;fontSize=15;fontColor=#069968;strokeColor=#330000;curved=1;" edge="1" parent="1">
          <mxGeometry width="50" height="50" relative="1" as="geometry">
            <mxPoint x="243" y="523" as="sourcePoint" />
            <mxPoint x="243" y="378" as="targetPoint" />
            <Array as="points">
              <mxPoint x="193" y="448" />
            </Array>
          </mxGeometry>
        </mxCell>
        <mxCell id="n7GQPO7dgmd4x0_rS5tO-30" value="" style="endArrow=classic;html=1;fontSize=15;fontColor=#069968;strokeColor=#069968;curved=1;entryX=0.125;entryY=0.167;entryDx=0;entryDy=0;entryPerimeter=0;" edge="1" parent="1" target="n7GQPO7dgmd4x0_rS5tO-27">
          <mxGeometry width="50" height="50" relative="1" as="geometry">
            <mxPoint x="240" y="420" as="sourcePoint" />
            <mxPoint x="264" y="387" as="targetPoint" />
            <Array as="points">
              <mxPoint x="238.98000000000002" y="400" />
            </Array>
          </mxGeometry>
        </mxCell>
        <mxCell id="n7GQPO7dgmd4x0_rS5tO-32" value="" style="endArrow=classic;html=1;fontSize=15;fontColor=#069968;strokeColor=#069968;curved=1;" edge="1" parent="1">
          <mxGeometry width="50" height="50" relative="1" as="geometry">
            <mxPoint x="240" y="478" as="sourcePoint" />
            <mxPoint x="260" y="518" as="targetPoint" />
            <Array as="points">
              <mxPoint x="240" y="500" />
            </Array>
          </mxGeometry>
        </mxCell>
        <mxCell id="n7GQPO7dgmd4x0_rS5tO-33" value="" style="endArrow=none;html=1;fontSize=10;fontColor=#069968;strokeColor=#069968;curved=1;entryX=0.874;entryY=-0.002;entryDx=0;entryDy=0;entryPerimeter=0;exitX=0.115;exitY=0;exitDx=0;exitDy=0;exitPerimeter=0;" edge="1" parent="1">
          <mxGeometry width="50" height="50" relative="1" as="geometry">
            <mxPoint x="238.95000000000005" y="354" as="sourcePoint" />
            <mxPoint x="337.6200000000001" y="353.6" as="targetPoint" />
          </mxGeometry>
        </mxCell>
        <mxCell id="n7GQPO7dgmd4x0_rS5tO-34" value="" style="endArrow=none;html=1;fontSize=10;fontColor=#069968;strokeColor=#069968;curved=1;entryX=0.994;entryY=0.983;entryDx=0;entryDy=0;entryPerimeter=0;exitX=0.115;exitY=0;exitDx=0;exitDy=0;exitPerimeter=0;" edge="1" parent="1">
          <mxGeometry width="50" height="50" relative="1" as="geometry">
            <mxPoint x="242.95000000000005" y="547" as="sourcePoint" />
            <mxPoint x="355.15999999999985" y="546.6" as="targetPoint" />
          </mxGeometry>
        </mxCell>
        <mxCell id="n7GQPO7dgmd4x0_rS5tO-36" value="&lt;font style=&quot;font-size: 20px&quot;&gt;&lt;font color=&quot;#330000&quot; style=&quot;font-size: 20px&quot;&gt;FEMINISMUL&lt;br&gt;este despre&lt;br&gt;REDUCEREA&amp;nbsp;&lt;br&gt;POVERII de&lt;br&gt;RESPONSIBILITATE&lt;br&gt;din afara COMFORTULUI&lt;br&gt;INDIVIDUAL &lt;/font&gt;+&lt;font color=&quot;#330000&quot; style=&quot;font-size: 20px&quot;&gt; CORPORAL&lt;br&gt;&amp;nbsp; &amp;nbsp; &amp;nbsp; &amp;nbsp; &amp;nbsp; &amp;nbsp; &amp;nbsp; &amp;nbsp; &lt;/font&gt;+&lt;/font&gt;&lt;font color=&quot;#330000&quot; style=&quot;font-size: 20px&quot;&gt;&lt;font style=&quot;font-size: 20px&quot;&gt; MENTAL&lt;/font&gt;&lt;br&gt;&lt;/font&gt;" style="text;html=1;align=center;verticalAlign=middle;resizable=0;points=[];autosize=1;strokeColor=none;fillColor=none;fontSize=10;fontColor=#069968;" vertex="1" parent="1">
          <mxGeometry x="390" y="390" width="260" height="130" as="geometry" />
        </mxCell>
        <mxCell id="n7GQPO7dgmd4x0_rS5tO-37" value="" style="shape=partialRectangle;whiteSpace=wrap;html=1;bottom=0;right=0;fillColor=none;fontSize=20;fontColor=#330000;strokeColor=#330000;strokeWidth=2;" vertex="1" parent="1">
          <mxGeometry x="390" y="350" width="40" height="40" as="geometry" />
        </mxCell>
        <mxCell id="n7GQPO7dgmd4x0_rS5tO-38" value="" style="shape=partialRectangle;whiteSpace=wrap;html=1;bottom=0;right=0;fillColor=none;fontSize=20;fontColor=#330000;strokeColor=#330000;strokeWidth=2;rotation=90;" vertex="1" parent="1">
          <mxGeometry x="607.5" y="347.5" width="40" height="40" as="geometry" />
        </mxCell>
        <mxCell id="n7GQPO7dgmd4x0_rS5tO-42" value="" style="shape=partialRectangle;whiteSpace=wrap;html=1;bottom=1;right=1;left=1;top=0;fillColor=none;routingCenterX=-0.5;fontSize=20;fontColor=#330000;strokeColor=#330000;strokeWidth=2;" vertex="1" parent="1">
          <mxGeometry x="390" y="500" width="260" height="60" as="geometry" />
        </mxCell>
      </root>
    </mxGraphModel>
  </diagram>
</mxfile>
